<?xml version="1.0" encoding="utf-8"?>
<!-- Generator: Adobe Illustrator 27.2.0, SVG Export Plug-In . SVG Version: 6.00 Build 0)  -->
<svg version="1.1" xmlns="http://www.w3.org/2000/svg" xmlns:xlink="http://www.w3.org/1999/xlink" x="0px" y="0px"
	 viewBox="0 0 28.35 28.35" style="enable-background:new 0 0 28.35 28.35;" xml:space="preserve">
<style type="text/css">
	.st0{fill:#FFFFFF;}
	.st1{fill:#020203;}
</style>
<g id="Background">
	<path class="st0" d="M26.07,28.35H2.27C1.02,28.35,0,27.33,0,26.07V2.27C0,1.02,1.02,0,2.27,0h23.8c1.26,0,2.27,1.02,2.27,2.27
		v23.8C28.35,27.33,27.33,28.35,26.07,28.35z"/>
</g>
<g id="VW">
	<g>
		<path d="M6.09,25.93L2.84,15.83h2.5l1.22,4.28c0.35,1.2,0.66,2.35,0.91,3.61h0.03c0.26-1.21,0.58-2.42,0.93-3.57l1.28-4.32h2.43
			l-3.4,10.11H6.09z"/>
		<path d="M14.94,25.93l-2.39-10.11H15l0.77,4.16c0.22,1.2,0.43,2.52,0.59,3.54h0.03c0.16-1.1,0.4-2.31,0.66-3.56l0.87-4.13h2.43
			l0.81,4.27c0.22,1.18,0.39,2.26,0.53,3.38h0.03c0.16-1.13,0.37-2.3,0.59-3.51l0.82-4.13h2.32l-2.61,10.11h-2.47l-0.86-4.35
			c-0.2-1.01-0.36-1.96-0.49-3.11h-0.03c-0.17,1.14-0.33,2.1-0.58,3.12l-0.97,4.35H14.94z"/>
	</g>
</g>
<g id="TS__x2B__Leaves">
	<g>
		<path d="M9.03,4.89H6.3V2.98h7.78v1.92h-2.77v8.19H9.03V4.89z"/>
		<path d="M15.24,10.73c0.61,0.32,1.56,0.63,2.53,0.63c1.05,0,1.61-0.44,1.61-1.1c0-0.62-0.48-0.99-1.69-1.41
			c-1.69-0.6-2.79-1.52-2.79-2.99c0-1.72,1.45-3.03,3.82-3.03c1.15,0,1.99,0.23,2.58,0.51l-0.5,1.83c-0.4-0.19-1.13-0.48-2.11-0.48
			c-1,0-1.47,0.46-1.47,0.98c0,0.64,0.56,0.93,1.87,1.42c1.79,0.67,2.62,1.6,2.62,3.03c0,1.69-1.29,3.14-4.08,3.14
			c-1.15,0-2.29-0.31-2.86-0.63L15.24,10.73z"/>
	</g>
	<path id="Leaf_Left" class="st1" d="M0.95,2.82C0.64,7.39,0.35,11.3,5.05,14.34C6.88,8.55,4.01,5.81,0.95,2.82z"/>
	<path id="Leaf_Right" class="st1" d="M23.31,14.34c4.7-3.03,4.4-6.94,4.09-11.52C24.36,5.81,21.48,8.55,23.31,14.34z"/>
</g>
</svg>
