<?xml version="1.0" encoding="UTF-8" standalone="no"?>
<!-- Created with Inkscape (http://www.inkscape.org/) -->

<svg
   width="1000"
   height="1000"
   viewBox="0 0 264.58333 264.58333"
   version="1.1"
   id="svg1085"
   inkscape:version="1.2.2 (b0a8486541, 2022-12-01)"
   sodipodi:docname="logo.svg"
   inkscape:export-filename="final-logo-3.png"
   inkscape:export-xdpi="97.321526"
   inkscape:export-ydpi="97.321526"
   xmlns:inkscape="http://www.inkscape.org/namespaces/inkscape"
   xmlns:sodipodi="http://sodipodi.sourceforge.net/DTD/sodipodi-0.dtd"
   xmlns="http://www.w3.org/2000/svg"
   xmlns:svg="http://www.w3.org/2000/svg">
  <sodipodi:namedview
     id="namedview1087"
     pagecolor="#ffffff"
     bordercolor="#000000"
     borderopacity="0.25"
     inkscape:showpageshadow="2"
     inkscape:pageopacity="0.0"
     inkscape:pagecheckerboard="0"
     inkscape:deskcolor="#d1d1d1"
     inkscape:document-units="mm"
     showgrid="false"
     inkscape:zoom="0.5"
     inkscape:cx="448"
     inkscape:cy="756"
     inkscape:window-width="2560"
     inkscape:window-height="1411"
     inkscape:window-x="2560"
     inkscape:window-y="29"
     inkscape:window-maximized="1"
     inkscape:current-layer="layer2" />
  <defs
     id="defs1082">
    <inkscape:path-effect
       effect="mirror_symmetry"
       start_point="132.29167,57.530855"
       end_point="132.29167,250.78945"
       center_point="132.29167,154.16015"
       id="path-effect2789"
       is_visible="true"
       lpeversion="1.2"
       lpesatellites=""
       mode="free"
       discard_orig_path="false"
       fuse_paths="false"
       oposite_fuse="false"
       split_items="false"
       split_open="false"
       link_styles="false" />
  </defs>
  <g
     inkscape:groupmode="layer"
     id="layer2"
     inkscape:label="Layer 1"
     transform="matrix(1.0099476,0,0,1.0099476,-1.3159891,-3.0156214)"
     style="fill:#000000;stroke:none;fill-opacity:1">
    <path
       id="path424"
       style="display:inline;stroke:none;stroke-width:0.339915;fill:#000000;fill-opacity:1"
       d="m 153.28723,71.789774 c -6.79567,-1.37e-4 -12.3047,5.508894 -12.30457,12.304568 2.4e-4,6.795424 5.50914,12.304061 12.30457,12.303937 6.79518,-2.29e-4 12.30373,-5.508759 12.30394,-12.303937 1.2e-4,-6.795428 -5.5085,-12.304349 -12.30394,-12.304568 z m -35.25346,13.970334 c -1.11108,-0.0074 -2.27574,0.03047 -3.49455,0.122492 -10.50127,0.793523 -11.89508,3.85903 -16.0804,7.982732 -2.262824,2.229494 -6.716725,7.753568 -6.716725,7.753568 -3.669777,4.77844 -8.486301,9.47421 -5.090716,13.09753 3.634997,3.87883 8.032522,-0.8712 9.164938,-2.17456 l 4.759923,-5.47928 3.24186,-3.77391 c 3.12871,-3.619521 5.50568,-6.734506 9.96175,-6.734506 0.60046,0 3.25897,-0.352607 7.63798,0.923805 l -15.37755,33.699151 c -3.48916,8.91888 -4.34326,20.12246 3.58917,25.86246 l 27.24148,19.70636 -8.02718,32.46553 c -1.54856,6.21529 -2.59484,11.32582 2.77773,13.11727 5.37255,1.79144 8.04622,-1.52364 9.59477,-7.73893 l 8.55671,-37.99751 c 1.86457,-7.5315 0.29428,-11.81768 -5.42589,-15.94901 l -15.53893,-12.2458 13.8462,-32.26902 2.76412,7.92801 c 4.56898,10.75082 3.16794,14.09247 19.40061,12.62098 0,0 -4.45875,0.42117 12.01251,-1.08887 5.62226,-0.33297 7.72886,-1.85451 7.70528,-4.89781 -0.0241,-3.11034 -3.4253,-5.31011 -7.95161,-4.88309 l -12.58521,1.04633 c -6.38035,0.53035 -5.37541,0.10529 -8.27417,-9.62271 l -3.36185,-9.68048 c -4.8537,-9.688751 -8.19251,-11.464965 -13.65884,-15.759761 -1.48731,-1.168561 -5.04563,-2.596148 -5.04563,-2.596148 -2.69852,-1.127721 -7.84839,-3.382399 -15.62578,-3.434873 z M 100.68236,143.30427 87.525653,170.708 c 0,0 1.462372,-0.0979 -18.54384,0.26601 -4.32348,0.0786 -11.135685,-0.11215 -11.308398,6.35676 -0.140335,5.25616 4.792307,7.22649 9.733818,7.28621 l 21.895532,0.26412 c 6.005152,0.0727 8.647893,-3.18388 12.677905,-8.70842 0,0 5.08099,-10.17596 7.91606,-15.73454 -1.91723,-1.494 -4.23382,-2.91088 -5.57198,-5.02343 -2.25574,-3.56112 -2.2166,-3.50543 -3.64239,-12.11044 z"
       sodipodi:nodetypes="cccccccscscccscccccsccccccccaccccacsccsscccccac"
       inkscape:label="runner" />
    <path
       id="rect1298"
       style="display:inline;fill:#000000;fill-opacity:1;stroke:none;stroke-width:0.298409;stroke-opacity:1"
       d="M 39.956361,43.463563 C 33.444465,53.783936 27.810733,62.567762 34.98419,75.607607 46.59428,64.375263 43.322774,54.320467 39.956361,43.463563 Z m -18.007382,23.27097 c -4.31591,11.414371 -8.078782,21.147304 1.558058,32.488683 9.128641,-13.327686 3.912024,-22.524572 -1.558058,-32.488683 z m 42.401208,1.376403 C 52.192081,69.157537 41.78921,69.974982 35.732758,83.569669 51.697866,86.034482 57.732978,77.353103 64.350187,68.110936 Z M 50.149313,88.106637 C 38.608661,92.072538 28.715279,95.390329 26.139102,110.0484 42.2251,108.56505 45.972852,98.678416 50.149313,88.106637 Z m -40.137938,7.417097 c -1.6540329,12.090446 -3.1448618,22.418436 8.784171,31.317546 5.917016,-15.0316 -1.224368,-22.82905 -8.784171,-31.317546 z m 28.177834,18.178056 c -9.504282,7.65399 -17.679793,14.1385 -15.117924,28.79908 14.622956,-6.86504 14.785321,-17.4371 15.117924,-28.79908 z M 3.2676623,125.13395 C 4.6902329,137.25381 5.8293371,147.6265 19.605033,153.2591 21.574316,137.22535 12.710302,131.46181 3.2676623,125.13395 Z M 33.82292,141.81158 c -5.664913,10.80851 -10.577118,20.01495 -2.382911,32.43876 10.67375,-12.12563 6.607557,-21.88614 2.382911,-32.43876 z M 5.2795814,156.15789 C 9.2580222,167.69422 12.58682,177.58371 27.24769,180.14395 25.746855,164.05957 15.855889,160.32285 5.2795814,156.15789 Z m 36.7232736,12.69878 c -3.23311,11.76698 -6.072305,21.80798 4.579777,32.20168 7.846543,-14.1206 1.795305,-22.79086 -4.579777,-32.20168 z m -29.509234,13.71189 c 6.129307,10.55209 11.303553,19.61389 26.182928,19.29764 -4.575661,-15.49268 -15.001797,-17.25131 -26.182928,-19.29764 z m 43.946092,9.77312 c -0.849851,12.17344 -1.653747,22.5775 10.838348,30.6672 4.908735,-15.39037 -2.733079,-22.69791 -10.838348,-30.6672 z m -20.559873,16.5547 c -3.031157,-0.009 -6.149088,0.30844 -9.330779,0.62014 8.795465,8.45899 16.262791,15.74793 30.481167,11.35094 -6.224943,-9.80112 -13.404104,-11.94935 -21.150388,-11.97108 z m 38.934618,1.98666 c 3.168377,11.78459 5.80301,21.8817 20.250897,25.45302 -0.381177,-16.14972 -9.989075,-20.56423 -20.250897,-25.45302 z m 27.080012,16.29097 c 7.00877,9.98956 12.9387,18.57564 27.7366,16.98879 -5.88309,-15.04489 -16.42148,-15.90564 -27.7366,-16.98879 z m -41.152128,-0.25048 c -4.61246,-0.0573 -9.281774,1.14075 -14.105929,2.34833 9.943993,7.07331 18.402144,13.18476 31.819156,6.74425 -5.946915,-6.87047 -11.782918,-9.01903 -17.713227,-9.09258 z m 31.413589,13.06485 c -6.827333,0.0511 -12.618873,3.60317 -18.706012,7.26615 11.576483,3.86005 21.45098,7.23388 32.401431,-2.845 -5.12966,-3.22243 -9.59902,-4.45181 -13.695419,-4.42115 z m 29.235379,7.83363 c -8.93329,-0.037 -15.63329,5.46124 -21.938107,11.19946 12.107607,1.52346 22.451127,2.90325 31.220967,-9.12112 -3.77365,-1.43864 -6.30509,-2.066 -9.28286,-2.07834 z M 224.62698,43.463563 c 6.51189,10.320373 12.14563,19.104199 4.97217,32.144044 -11.61009,-11.232344 -8.33859,-21.28714 -4.97217,-32.144044 z m 18.00738,23.27097 c 4.31591,11.414371 8.07878,21.147304 -1.55805,32.488683 -9.12864,-13.327686 -3.91203,-22.524572 1.55805,-32.488683 z m -42.4012,1.376403 c 12.1581,1.046601 22.56097,1.864046 28.61743,15.458733 -15.96512,2.464813 -22.00022,-6.216566 -28.61743,-15.458733 z m 14.20087,19.995701 c 11.54065,3.965901 21.43404,7.283692 24.01021,21.941763 -16.086,-1.48335 -19.83376,-11.369984 -24.01021,-21.941763 z m 40.13793,7.417097 c 1.65404,12.090446 3.14487,22.418436 -8.78417,31.317546 -5.91701,-15.0316 1.22438,-22.82905 8.78417,-31.317546 z m -28.17783,18.178056 c 9.50428,7.65399 17.6798,14.1385 15.11792,28.79908 -14.62295,-6.86504 -14.78533,-17.4371 -15.11792,-28.79908 z m 34.92155,11.43216 c -1.42257,12.11986 -2.56168,22.49255 -16.33737,28.12515 -1.96928,-16.03375 6.89473,-21.79729 16.33737,-28.12515 z m -30.55526,16.67763 c 5.66492,10.80851 10.57711,20.01495 2.38292,32.43876 -10.67376,-12.12563 -6.60757,-21.88614 -2.38292,-32.43876 z m 28.54335,14.34631 c -3.97845,11.53633 -7.30725,21.42582 -21.96812,23.98606 1.50083,-16.08438 11.3918,-19.8211 21.96812,-23.98606 z m -36.72328,12.69878 c 3.23311,11.76698 6.0723,21.80798 -4.57978,32.20168 -7.84654,-14.1206 -1.79531,-22.79086 4.57978,-32.20168 z m 29.50923,13.71189 c -6.1293,10.55209 -11.30355,19.61389 -26.18293,19.29764 4.57566,-15.49268 15.0018,-17.25131 26.18293,-19.29764 z m -43.94609,9.77312 c 0.84986,12.17344 1.65374,22.5775 -10.83835,30.6672 -4.90873,-15.39037 2.73308,-22.69791 10.83835,-30.6672 z m 20.55987,16.5547 c 3.03116,-0.009 6.14909,0.30844 9.33079,0.62014 -8.79547,8.45899 -16.2628,15.74793 -30.48117,11.35094 6.22493,-9.80112 13.40409,-11.94935 21.15038,-11.97108 z m -38.93463,1.98666 c -3.16836,11.78459 -5.803,21.8817 -20.25089,25.45302 0.38118,-16.14972 9.98908,-20.56423 20.25089,-25.45302 z m -27.08,16.29097 c -7.00878,9.98956 -12.9387,18.57564 -27.7366,16.98879 5.88309,-15.04489 16.42148,-15.90564 27.7366,-16.98879 z m 41.15212,-0.25048 c 4.61247,-0.0573 9.28178,1.14075 14.10593,2.34833 -9.94398,7.07331 -18.40213,13.18476 -31.81915,6.74425 5.94692,-6.87047 11.78292,-9.01903 17.71322,-9.09258 z m -31.41359,13.06485 c 6.82735,0.0511 12.61888,3.60317 18.70602,7.26615 -11.57649,3.86005 -21.45098,7.23388 -32.40143,-2.845 5.12965,-3.22243 9.59902,-4.45181 13.69541,-4.42115 z m -29.23537,7.83363 c 8.93329,-0.037 15.63329,5.46124 21.93811,11.19946 -12.10761,1.52346 -22.45113,2.90325 -31.22097,-9.12112 3.77365,-1.43864 6.30509,-2.066 9.28286,-2.07834 z"
       sodipodi:nodetypes="ccccccccccccccccccccccccccccccccccccsccsccccccsccssccssccsccccccccccccccccccccccccccccccccccccsccsccccccsccssccssccs"
       inkscape:label="laurel" />
    <path
       id="path352"
       style="stroke:none;stroke-width:0.0913714;fill:#000000;fill-opacity:1"
       d="m 200.1049,100.46699 c -3.21242,0.0286 -6.46189,1.12903 -6.96542,3.18517 -2.16571,0.14373 -7.73444,0.12677 -7.89463,2.78095 5.6e-4,0.91459 0.58401,1.79759 2.19816,2.48111 v 1.40864 c 3.09355,2.36245 7.50466,3.15639 12.36103,0.8197 4.3412,2.17449 8.73754,1.37662 12.36103,-0.8197 v -1.58875 c 1.36611,-0.65676 1.81543,-1.46683 1.81644,-2.301 -8.3e-4,-1.78705 -5.21646,-2.4735 -7.13376,-2.7216 -0.35479,-2.22998 -3.53044,-3.27308 -6.74285,-3.24452 z m -12.60459,12.16205 c -1.41506,0.24518 -2.53381,3.69278 -2.53381,5.38589 v 2.04567 h -4.3083 c -3.56793,0 -6.46295,3.41264 -6.46295,7.61934 v 7.43668 c 0,3.01613 1.89595,4.77524 3.83755,6.26955 2.25357,1.73434 6.9337,5.41812 6.9337,5.41812 v 8.22005 c 0,2.08528 2.41536,2.03902 5.38589,2.03902 h 18.85008 c 2.97051,0 5.38538,-0.0958 5.38538,-2.03902 v -37.00941 c 0,-1.68655 -1.11013,-5.11397 -2.51744,-5.38282 -3.6053,2.15314 -7.9628,2.91906 -12.26637,0.76342 -4.81911,2.31876 -9.19905,1.55386 -12.28889,-0.76649 z m 12.28377,10.20739 c 0.78784,0 1.42194,0.94512 1.42194,2.11885 v 22.09768 c 0,1.17374 -0.6341,2.11884 -1.42194,2.11884 -0.78783,0 -1.42245,-0.9451 -1.42245,-2.11884 v -22.09768 c 0,-1.17373 0.63462,-2.11885 1.42245,-2.11885 z m -6.63897,1.30426 c 0.7331,0 1.32319,0.85105 1.32319,1.90855 V 145.959 c 0,1.05751 -0.59009,1.90906 -1.32319,1.90906 -0.7331,0 -1.32319,-0.85155 -1.32319,-1.90906 v -19.90976 c 0,-1.0575 0.59009,-1.90855 1.32319,-1.90855 z m 13.27744,0 c 0.73307,0 1.32319,0.85105 1.32319,1.90855 V 145.959 c 0,1.05751 -0.59012,1.90906 -1.32319,1.90906 -0.73309,0 -1.32319,-0.85155 -1.32319,-1.90906 v -19.90976 c 0,-1.0575 0.5901,-1.90855 1.32319,-1.90855 z m -25.8237,0.79566 h 4.36765 v 15.55797 l -4.94738,-3.60987 c -0.93934,-0.68527 -1.44292,-1.28867 -1.44292,-2.42584 v -7.10972 c 0,-1.20392 1.10328,-2.41254 2.02265,-2.41254 z"
       inkscape:label="beer"
       sodipodi:nodetypes="scccccccccscscsssccsssssccccsssssssssssssssssssssscccsss" />
    <g
       aria-label="1.TSVW"
       id="text2324"
       style="font-weight:800;font-size:43.6629px;font-family:Cantarell;-inkscape-font-specification:'Cantarell Ultra-Bold';letter-spacing:-2.61977px;fill:#000000;stroke:none;stroke-width:0.27822;stroke-opacity:1;fill-opacity:1"
       transform="translate(-1.7399544,-2.8859535)"
       inkscape:label="text">
      <path
         d="m 73.385885,61.758842 6.005746,-4.581388 -18.378517,-24.092416 -3.575675,2.727648 -6.004568,12.213908 5.540264,2.583365 4.675621,-8.124808 -3.331137,-0.479312 z"
         style="fill:#000000;stroke:none;stroke-opacity:1;fill-opacity:1"
         id="path2383"
         inkscape:label="1" />
      <path
         d="m 86.309023,53.767854 c 2.448371,-1.346959 3.086988,-3.990666 1.824214,-6.286013 -1.346958,-2.448371 -3.921827,-3.324196 -6.370197,-1.977238 -2.448371,1.346958 -3.086988,3.990666 -1.74003,6.439036 1.262773,2.295348 3.837643,3.171173 6.286013,1.824215 z"
         style="fill:#000000;stroke:none;stroke-opacity:1;fill-opacity:1"
         id="path2385"
         inkscape:label="." />
      <path
         d="m 98.11154,47.748152 7.03577,-2.365219 -7.540872,-22.431701 8.939572,-3.00522 -2.11478,-6.290809 -24.832146,8.347832 2.114784,6.29081 8.856797,-2.977394 z"
         style="fill:#000000;stroke:none;stroke-opacity:1;fill-opacity:1"
         id="path2387"
         inkscape:label="T" />
      <path
         d="m 124.09622,42.339054 c 8.0102,-0.617609 12.15526,-4.790945 11.68869,-10.842128 -0.85592,-11.101091 -15.52952,-6.597691 -15.87525,-11.081661 -0.11748,-1.523679 1.51656,-2.481726 4.47685,-2.709973 2.43789,-0.187968 5.17054,0.03926 7.36075,0.614862 l 1.62641,-6.168765 c -2.61222,-0.937195 -6.01466,-1.331744 -9.10556,-1.093427 -7.66193,0.590757 -12.57716,4.998646 -12.10724,11.093362 0.79215,10.273951 15.41225,6.212602 15.7714,10.870707 0.10741,1.393078 -1.13818,2.277381 -4.05494,2.502272 -2.74262,0.211464 -6.09146,-0.05584 -9.19263,-1.086714 l -1.61298,6.3429 c 3.1983,1.154761 7.2806,1.847231 11.0245,1.558565 z"
         style="fill:#000000;stroke:none;stroke-opacity:1;fill-opacity:1"
         id="path2389"
         inkscape:label="S" />
      <path
         d="m 145.81088,42.422493 7.94258,1.4709 16.12229,-27.831577 -7.68499,-1.423195 -12.9007,24.342898 2.96237,0.548606 -2.7698,-27.244945 -8.67245,-1.606064 z"
         style="fill:#000000;stroke:none;stroke-opacity:1;fill-opacity:1"
         id="path2391"
         inkscape:label="V" />
      <path
         d="m 170.09813,48.237085 7.10443,4.283665 19.48036,-18.94764 -2.99134,-1.803649 -7.06629,26.432781 6.91748,4.170937 23.08761,-21.463313 -6.54356,-3.945481 -19.18947,19.47993 3.04634,0.613153 7.15371,-25.30937 -7.06705,-4.261119 -18.76055,18.51489 1.94437,1.172372 8.34365,-24.999772 -7.2914,-4.396393 z"
         style="fill:#000000;stroke:none;stroke-opacity:1;fill-opacity:1"
         id="path2393"
         inkscape:label="W" />
    </g>
  </g>
</svg>
